<svg xmlns="http://www.w3.org/2000/svg" width="24" height="24" viewBox="0 0 24 24" fill="none">
  <path d="M17 12C17 16.5 15 20 12 20C9 20 7 16.5 7 12C7 7.5 11 2 12 2C13 2 17 7.5 17 12Z" fill="#F9B198"/>
  <path d="M3.99966 15.5C5.02966 16.971 6.57166 18.196 8.17866 19C6.54966 17.534 5.49966 15.073 5.49966 12C5.49966 10.364 5.57266 8.373 5.99666 6.537C5.33781 6.33353 4.67169 6.15441 3.99966 6C3.17966 6.574 1.56166 12.019 3.99966 15.5Z" fill="#F9B198"/>
  <path d="M23.782 12C23.224 12.046 22.688 12.105 22.173 12.177C21.996 13.74 21.565 15.255 20.817 16.417C19.516 18.44 17.487 20.079 15.417 21C17.747 20.958 19.607 20.31 20.997 19.058C22.957 17.294 23.957 15.015 23.997 12.221V12.201C23.987 12.081 23.892 11.991 23.782 12.001V12Z" fill="#F9B198"/>
  <path d="M2.998 19.0578C4.38 20.3128 6.24 20.9598 8.579 20.9998C6.509 20.0798 4.479 18.4398 3.179 16.4178C2.431 15.2548 1.999 13.7398 1.822 12.1778C1.28816 12.103 0.752271 12.0436 0.215 11.9998C0.105 11.9898 0.009 12.0798 0.001 12.1998L0 12.2228C0.054 15.0168 1.053 17.2938 2.998 19.0578Z" fill="#F9B198"/>
  <path d="M18.0033 6.537C18.6333 6.341 19.2993 6.162 20.0003 6C20.8203 6.574 22.4383 12.019 20.0003 15.5C18.9703 16.971 17.4283 18.196 15.8213 19C17.4503 17.533 18.5003 15.072 18.5003 12C18.5003 10.364 18.4273 8.373 18.0033 6.537Z" fill="#F9B198"/>
</svg>