<svg xmlns="http://www.w3.org/2000/svg" width="24" height="24" viewBox="0 0 24 24" fill="none">
  <path d="M16.5 12C16.5 14.1834 16.0137 16.0873 15.1979 17.4275C14.3854 18.7624 13.2773 19.5 12 19.5C10.7227 19.5 9.61461 18.7624 8.8021 17.4275C7.98633 16.0873 7.5 14.1834 7.5 12C7.5 9.87753 8.45151 7.46814 9.55739 5.56357C10.1068 4.61733 10.6821 3.81695 11.1722 3.26C11.4183 2.98038 11.6334 2.77302 11.8046 2.6401C11.8903 2.5736 11.9553 2.53337 11.9995 2.51163C11.9997 2.51155 11.9998 2.51148 12 2.5114C12.0002 2.51148 12.0003 2.51155 12.0005 2.51163C12.0447 2.53337 12.1097 2.5736 12.1954 2.6401C12.3666 2.77302 12.5817 2.98038 12.8278 3.26C13.3179 3.81695 13.8932 4.61733 14.4426 5.56357C15.5485 7.46814 16.5 9.87753 16.5 12Z" fill="#F9B198" stroke="#F2E4C9"/>
  <path d="M4.40923 15.2132L4.4092 15.2132C3.28776 13.612 3.07932 11.5211 3.275 9.71369C3.37214 8.81646 3.5668 8.01139 3.78213 7.40411C3.88996 7.09999 3.99997 6.85401 4.10048 6.67455C4.12612 6.62876 4.1503 6.58882 4.17274 6.55439C4.58799 6.65446 5.00085 6.76416 5.41099 6.88341C5.06107 8.64262 4.99966 10.4873 4.99966 12C4.99966 13.9205 5.39604 15.6325 6.09671 17.0357C5.45159 16.4908 4.87377 15.8766 4.40923 15.2132Z" fill="#F9B198" stroke="#F2E4C9"/>
  <path d="M20.6624 18.6865C19.8942 19.3784 18.9625 19.8784 17.8561 20.1764C19.1693 19.2449 20.36 18.0521 21.2375 16.6875C21.9762 15.5399 22.4133 14.0974 22.6205 12.6222C22.8371 12.5951 23.0576 12.5703 23.282 12.5478V12.5485L23.4882 12.5298C23.382 15.048 22.4386 17.0879 20.6625 18.6864L20.6624 18.6865Z" fill="#F9B198" stroke="#F2E4C9"/>
  <path d="M3.33414 18.6876L3.3339 18.6874C1.57074 17.0883 0.627848 15.0484 0.510248 12.5276C0.798809 12.5547 1.08692 12.5864 1.37448 12.6226C1.58191 14.0974 2.01991 15.5399 2.75847 16.6883C3.63687 18.0545 4.83025 19.2492 6.14631 20.1814C5.03331 19.8844 4.09993 19.3831 3.33414 18.6876Z" fill="#F9B198" stroke="#F2E4C9"/>
  <path d="M19.5907 15.2132L19.5907 15.2132C19.126 15.8769 18.548 16.4912 17.9026 17.0362C18.6037 15.6327 19.0003 13.9205 19.0003 12C19.0003 10.4872 18.9389 8.6423 18.5889 6.88295C18.9873 6.76708 19.4002 6.65761 19.8273 6.55458C19.8497 6.58897 19.8739 6.62884 19.8995 6.67455C20 6.85401 20.11 7.09999 20.2178 7.40411C20.4331 8.01139 20.6278 8.81646 20.7249 9.71369C20.9206 11.5211 20.7122 13.612 19.5907 15.2132Z" fill="#F9B198" stroke="#F2E4C9"/>
</svg>