<svg xmlns="http://www.w3.org/2000/svg" width="28" height="28" viewBox="0 0 28 28" fill="none">
	<path d="M0 4C0 1.79086 1.79086 0 4 0H24C26.2091 0 28 1.79086 28 4V24C28 26.2091 26.2091 28 24 28H4C1.79086 28 0 26.2091 0 24V4Z" fill="#F2E4D3"/>
	<path d="M20.6615 13.9901C20.3889 13.6689 19.9915 13.4849 19.5702 13.4849H17.3171L16.5327 4.85471C16.4355 3.79773 15.5634 3 14.5017 3H14.4969C13.4361 3 12.5631 3.79773 12.4659 4.85471L11.6815 13.4849H9.4303C9.00904 13.4849 8.6116 13.6689 8.33902 13.9901C8.06643 14.3112 7.95016 14.7335 8.01973 15.149L9.60853 24.6799C9.7229 25.3718 10.3148 25.8741 11.0172 25.8741H17.9805C18.6829 25.8741 19.2757 25.3718 19.391 24.6799L20.9798 15.149C21.0503 14.7344 20.9341 14.3112 20.6615 13.9901ZM13.4152 4.94144C13.4647 4.37816 13.9317 3.95309 14.4969 3.95309H14.5017C15.0669 3.95309 15.532 4.37816 15.5834 4.94144L16.3602 13.484H12.6384L13.4152 4.94144ZM18.4513 24.5236C18.4132 24.7533 18.2149 24.921 17.9814 24.921H11.0172C10.7837 24.921 10.5854 24.7542 10.5473 24.5236L8.95852 14.9927C8.93565 14.8516 8.97282 14.7144 9.06527 14.6057C9.15772 14.4971 9.28734 14.4371 9.4303 14.4371H19.5692C19.7122 14.4371 19.8409 14.4971 19.9333 14.6057C20.0258 14.7144 20.0629 14.8526 20.0401 14.9927L18.4513 24.5236ZM17.8356 15.3901H11.164C10.9009 15.3901 10.6874 15.6036 10.6874 15.8667V18.7259C10.6874 18.989 10.9009 19.2025 11.164 19.2025H17.8356C18.0986 19.2025 18.3121 18.989 18.3121 18.7259V15.8667C18.3121 15.6036 18.0986 15.3901 17.8356 15.3901ZM17.359 18.2494H11.6405V16.3432H17.359V18.2494Z" fill="#181818"/>
</svg>